<svg width="148" height="150" viewBox="0 0 148 150" fill="none" xmlns="http://www.w3.org/2000/svg">
<path d="M74 112.5C94.4345 112.5 111 95.7107 111 75C111 54.2893 94.4345 37.5 74 37.5C53.5655 37.5 37 54.2893 37 75C37 95.7107 53.5655 112.5 74 112.5Z" fill="url(#paint0_linear)"/>
<path d="M99.6456 48.0001L37.5088 81.1407C37.1634 79.1127 36.9932 77.058 37 75.0001C36.9953 67.6436 39.1268 60.4485 43.129 54.3114C47.1312 48.1743 52.827 43.3667 59.5065 40.4879C66.186 37.609 73.5538 36.7863 80.6915 38.1221C87.8292 39.458 94.4211 42.8933 99.6456 48.0001Z" fill="url(#paint1_linear)"/>
<path d="M74 29.6323C73.3867 29.6323 72.7985 29.3853 72.3648 28.9458C71.9311 28.5063 71.6875 27.9101 71.6875 27.2885V4.6875C71.6875 4.0659 71.9311 3.46976 72.3648 3.03022C72.7985 2.59068 73.3867 2.34375 74 2.34375C74.6133 2.34375 75.2015 2.59068 75.6352 3.03022C76.0689 3.46976 76.3125 4.0659 76.3125 4.6875V27.2885C76.3125 27.9101 76.0689 28.5063 75.6352 28.9458C75.2015 29.3853 74.6133 29.6323 74 29.6323Z" fill="url(#paint2_linear)"/>
<path d="M50.4641 36.0235C50.0577 36.024 49.6583 35.916 49.3063 35.7102C48.9542 35.5045 48.6619 35.2084 48.4587 34.8517L42.0339 23.5724C41.882 23.3058 41.7835 23.0115 41.7439 22.7063C41.7042 22.4011 41.7243 22.0909 41.803 21.7936C41.8816 21.4963 42.0172 21.2175 42.2022 20.9733C42.3871 20.7291 42.6176 20.5242 42.8807 20.3703C43.1437 20.2165 43.4341 20.1166 43.7353 20.0764C44.0364 20.0363 44.3424 20.0566 44.6357 20.1363C44.9291 20.216 45.2041 20.3535 45.4451 20.5409C45.686 20.7283 45.8882 20.962 46.04 21.2286L52.4649 32.5079C52.6677 32.8641 52.7746 33.2681 52.7747 33.6793C52.7747 34.0906 52.6681 34.4946 52.4653 34.8508C52.2626 35.2071 51.9709 35.503 51.6197 35.7088C51.2684 35.9147 50.8698 36.0232 50.4641 36.0235Z" fill="url(#paint3_linear)"/>
<path d="M33.2286 53.4875C32.8234 53.4875 32.4254 53.3794 32.0746 53.1739L12.7627 41.874C12.4997 41.7201 12.2691 41.5152 12.0842 41.271C11.8993 41.0268 11.7636 40.7481 11.685 40.4508C11.6063 40.1534 11.5863 39.8433 11.6259 39.5381C11.6655 39.2329 11.764 38.9386 11.9159 38.672C12.0677 38.4054 12.2699 38.1717 12.5108 37.9843C12.7518 37.7969 13.0268 37.6594 13.3202 37.5797C13.6135 37.5 13.9195 37.4796 14.2206 37.5198C14.5218 37.5599 14.8122 37.6598 15.0752 37.8137L34.3869 49.1136C34.8281 49.3716 35.173 49.77 35.3679 50.247C35.5628 50.724 35.5968 51.2529 35.4648 51.7515C35.3327 52.2501 35.0419 52.6906 34.6375 53.0045C34.2331 53.3184 33.7377 53.4882 33.2283 53.4875H33.2286Z" fill="url(#paint4_linear)"/>
<path d="M26.9246 77.3438H14.0736C13.4603 77.3438 12.8721 77.0968 12.4384 76.6573C12.0047 76.2177 11.7611 75.6216 11.7611 75C11.7611 74.3784 12.0047 73.7823 12.4384 73.3427C12.8721 72.9032 13.4603 72.6562 14.0736 72.6562H26.9246C27.5379 72.6562 28.1261 72.9032 28.5598 73.3427C28.9935 73.7823 29.2371 74.3784 29.2371 75C29.2371 75.6216 28.9935 76.2177 28.5598 76.6573C28.1261 77.0968 27.5379 77.3438 26.9246 77.3438Z" fill="url(#paint5_linear)"/>
<path d="M13.9212 112.5C13.4118 112.501 12.9165 112.331 12.5121 112.017C12.1077 111.703 11.8169 111.263 11.6848 110.764C11.5527 110.265 11.5868 109.736 11.7817 109.259C11.9766 108.782 12.3214 108.384 12.7627 108.126L32.0744 96.8262C32.3374 96.6723 32.6278 96.5724 32.9289 96.5322C33.2301 96.4921 33.536 96.5124 33.8294 96.5921C34.1228 96.6718 34.3978 96.8093 34.6387 96.9967C34.8797 97.1841 35.0819 97.4178 35.2337 97.6844C35.3855 97.951 35.4841 98.2453 35.5237 98.5505C35.5633 98.8557 35.5432 99.1659 35.4646 99.4632C35.386 99.7605 35.2503 100.039 35.0654 100.283C34.8805 100.528 34.6499 100.733 34.3869 100.886L15.0752 112.186C14.7244 112.392 14.3264 112.5 13.9212 112.5Z" fill="url(#paint6_linear)"/>
<path d="M44.0347 129.943C43.6289 129.943 43.2303 129.834 42.8791 129.629C42.5278 129.423 42.2361 129.127 42.0334 128.771C41.8307 128.414 41.724 128.01 41.7241 127.599C41.7241 127.188 41.831 126.784 42.0339 126.428L48.4587 115.149C48.7653 114.61 49.2705 114.217 49.863 114.056C50.4555 113.895 51.0868 113.979 51.618 114.29C52.1493 114.601 52.537 115.113 52.6958 115.714C52.8546 116.314 52.7715 116.954 52.4649 117.492L46.0401 128.772C45.8368 129.128 45.5445 129.424 45.1924 129.63C44.8403 129.836 44.441 129.944 44.0347 129.943Z" fill="url(#paint7_linear)"/>
<path d="M74 147.656C73.3867 147.656 72.7985 147.409 72.3648 146.97C71.9311 146.53 71.6875 145.934 71.6875 145.312V122.711C71.6875 122.09 71.9311 121.494 72.3648 121.054C72.7985 120.615 73.3867 120.368 74 120.368C74.6133 120.368 75.2015 120.615 75.6352 121.054C76.0689 121.494 76.3125 122.09 76.3125 122.711V145.312C76.3125 145.934 76.0689 146.53 75.6352 146.97C75.2015 147.409 74.6133 147.656 74 147.656Z" fill="url(#paint8_linear)"/>
<path d="M103.965 129.943C103.559 129.944 103.16 129.836 102.808 129.63C102.455 129.424 102.163 129.128 101.96 128.771L95.5351 117.492C95.3833 117.226 95.2848 116.931 95.2451 116.626C95.2055 116.321 95.2256 116.011 95.3042 115.714C95.3829 115.416 95.5185 115.137 95.7034 114.893C95.8884 114.649 96.1189 114.444 96.382 114.29C96.645 114.136 96.9354 114.036 97.2365 113.996C97.5377 113.956 97.8436 113.977 98.137 114.056C98.4304 114.136 98.7054 114.273 98.9464 114.461C99.1873 114.648 99.3895 114.882 99.5413 115.149L105.966 126.428C106.169 126.784 106.276 127.188 106.276 127.599C106.276 128.01 106.169 128.415 105.967 128.771C105.764 129.127 105.472 129.423 105.121 129.629C104.77 129.835 104.371 129.943 103.965 129.943V129.943Z" fill="url(#paint9_linear)"/>
<path d="M134.079 112.5C133.674 112.5 133.276 112.392 132.925 112.186L113.613 100.886C113.082 100.576 112.694 100.064 112.535 99.4632C112.377 98.8627 112.46 98.2229 112.766 97.6844C113.073 97.146 113.578 96.7531 114.171 96.5921C114.763 96.4312 115.394 96.5154 115.926 96.8262L135.238 108.126C135.679 108.384 136.024 108.783 136.219 109.26C136.413 109.737 136.447 110.265 136.315 110.764C136.183 111.263 135.892 111.703 135.488 112.017C135.084 112.331 134.588 112.501 134.079 112.5Z" fill="url(#paint10_linear)"/>
<path d="M133.926 77.3438H121.075C120.462 77.3438 119.874 77.0968 119.44 76.6573C119.006 76.2177 118.763 75.6216 118.763 75C118.763 74.3784 119.006 73.7823 119.44 73.3427C119.874 72.9032 120.462 72.6562 121.075 72.6562H133.926C134.54 72.6562 135.128 72.9032 135.562 73.3427C135.995 73.7823 136.239 74.3784 136.239 75C136.239 75.6216 135.995 76.2177 135.562 76.6573C135.128 77.0968 134.54 77.3438 133.926 77.3438Z" fill="url(#paint11_linear)"/>
<path d="M114.771 53.4875C114.262 53.4882 113.767 53.3184 113.362 53.0045C112.958 52.6906 112.667 52.2501 112.535 51.7515C112.403 51.2529 112.437 50.724 112.632 50.247C112.827 49.77 113.172 49.3716 113.613 49.1136L132.925 37.8137C133.188 37.6598 133.478 37.5599 133.779 37.5198C134.08 37.4796 134.386 37.5 134.68 37.5797C134.973 37.6594 135.248 37.7969 135.489 37.9843C135.73 38.1717 135.932 38.4054 136.084 38.672C136.236 38.9386 136.335 39.2329 136.374 39.5381C136.414 39.8433 136.394 40.1534 136.315 40.4508C136.236 40.7481 136.101 41.0268 135.916 41.271C135.731 41.5152 135.5 41.7201 135.237 41.874L115.926 53.1739C115.575 53.3794 115.177 53.4876 114.771 53.4875Z" fill="url(#paint12_linear)"/>
<path d="M97.5359 36.0235C97.1302 36.0232 96.7316 35.9147 96.3804 35.7088C96.0291 35.503 95.7374 35.2071 95.5347 34.8508C95.3319 34.4946 95.2253 34.0906 95.2253 33.6793C95.2254 33.2681 95.3323 32.8641 95.5352 32.5079L101.96 21.2286C102.112 20.962 102.314 20.7283 102.555 20.5409C102.796 20.3535 103.071 20.216 103.364 20.1363C103.658 20.0566 103.964 20.0363 104.265 20.0764C104.566 20.1166 104.856 20.2165 105.119 20.3703C105.382 20.5242 105.613 20.7291 105.798 20.9733C105.983 21.2175 106.118 21.4963 106.197 21.7936C106.276 22.0909 106.296 22.4011 106.256 22.7063C106.217 23.0115 106.118 23.3058 105.966 23.5724L99.5413 34.8517C99.3381 35.2084 99.0458 35.5045 98.6937 35.7102C98.3417 35.916 97.9423 36.024 97.5359 36.0235Z" fill="url(#paint13_linear)"/>
<path d="M38.2178 84.375C40.258 92.4222 44.8812 99.553 51.3592 104.645C57.8372 109.736 65.8022 112.5 74 112.5C82.1978 112.5 90.1628 109.736 96.6408 104.645C103.119 99.553 107.742 92.4222 109.782 84.375H38.2178Z" fill="url(#paint14_linear)"/>
<path d="M71.6875 18.75V27.2885C71.6875 27.9101 71.9311 28.5063 72.3648 28.9458C72.7985 29.3853 73.3867 29.6323 74 29.6323C74.6133 29.6323 75.2015 29.3853 75.6352 28.9458C76.0689 28.5063 76.3125 27.9101 76.3125 27.2885V18.75H71.6875Z" fill="url(#paint15_linear)"/>
<path d="M44.2473 27.458L48.4596 34.8525C48.6114 35.1191 48.8136 35.3527 49.0545 35.5401C49.2954 35.7275 49.5704 35.8649 49.8637 35.9446C50.1571 36.0243 50.463 36.0446 50.7641 36.0044C51.0652 35.9642 51.3556 35.8644 51.6186 35.7105C51.8816 35.5566 52.1121 35.3517 52.297 35.1075C52.4818 34.8633 52.6174 34.5846 52.696 34.2873C52.7747 33.99 52.7947 33.6799 52.7551 33.3748C52.7154 33.0696 52.6169 32.7754 52.465 32.5088L48.2526 25.1143L44.2473 27.458Z" fill="url(#paint16_linear)"/>
<path d="M24.7794 48.9046L32.0753 53.174C32.3383 53.3279 32.6286 53.4277 32.9297 53.4679C33.2308 53.5081 33.5368 53.4878 33.8301 53.4081C34.1234 53.3284 34.3984 53.191 34.6394 53.0036C34.8803 52.8162 35.0824 52.5826 35.2343 52.316C35.3861 52.0495 35.4847 51.7552 35.5243 51.4501C35.5639 51.1449 35.5439 50.8348 35.4653 50.5375C35.3867 50.2402 35.2511 49.9615 35.0662 49.7173C34.8813 49.4731 34.6508 49.2682 34.3878 49.1144L27.0919 44.8452L24.7794 48.9046Z" fill="url(#paint17_linear)"/>
<path d="M18.5 77.3438H26.9247C27.538 77.3438 28.1262 77.0968 28.5599 76.6573C28.9935 76.2177 29.2372 75.6216 29.2372 75C29.2372 74.3784 28.9935 73.7823 28.5599 73.3427C28.1262 72.9032 27.538 72.6562 26.9247 72.6562H18.5V77.3438Z" fill="url(#paint18_linear)"/>
<path d="M27.0919 105.155L34.3878 100.886C34.919 100.575 35.3065 100.063 35.4653 99.4624C35.624 98.862 35.5409 98.2222 35.2343 97.6839C34.9276 97.1456 34.4225 96.7527 33.8301 96.5918C33.2377 96.4309 32.6065 96.5152 32.0753 96.826L24.7794 101.095L27.0919 105.155Z" fill="url(#paint19_linear)"/>
<path d="M48.2526 124.886L52.465 117.491C52.6169 117.225 52.7154 116.93 52.7551 116.625C52.7947 116.32 52.7747 116.01 52.696 115.713C52.6174 115.415 52.4818 115.137 52.297 114.893C52.1121 114.648 51.8816 114.443 51.6186 114.29C51.3556 114.136 51.0652 114.036 50.7641 113.996C50.463 113.955 50.1571 113.976 49.8637 114.055C49.5704 114.135 49.2954 114.273 49.0545 114.46C48.8136 114.647 48.6114 114.881 48.4596 115.148L44.2473 122.542L48.2526 124.886Z" fill="url(#paint20_linear)"/>
<path d="M76.3125 131.25V122.711C76.3125 122.09 76.0689 121.494 75.6352 121.054C75.2015 120.615 74.6133 120.368 74 120.368C73.3867 120.368 72.7985 120.615 72.3648 121.054C71.9311 121.494 71.6875 122.09 71.6875 122.711V131.25H76.3125Z" fill="url(#paint21_linear)"/>
<path d="M103.753 122.542L99.5404 115.148C99.2337 114.61 98.7286 114.217 98.1362 114.056C97.5438 113.896 96.9126 113.98 96.3814 114.291C95.8502 114.601 95.4626 115.113 95.3039 115.714C95.1451 116.314 95.2282 116.954 95.5349 117.492L99.7473 124.887L103.753 122.542Z" fill="url(#paint22_linear)"/>
<path d="M123.221 101.095L115.926 96.826C115.395 96.5152 114.763 96.4309 114.171 96.5918C113.578 96.7527 113.073 97.1456 112.767 97.6839C112.46 98.2222 112.377 98.862 112.536 99.4624C112.694 100.063 113.082 100.575 113.613 100.886L120.909 105.155L123.221 101.095Z" fill="url(#paint23_linear)"/>
<path d="M129.5 72.6562H121.075C120.462 72.6562 119.874 72.9032 119.44 73.3427C119.006 73.7823 118.763 74.3784 118.763 75C118.763 75.6216 119.006 76.2177 119.44 76.6573C119.874 77.0968 120.462 77.3438 121.075 77.3438H129.5V72.6562Z" fill="url(#paint24_linear)"/>
<path d="M120.908 44.8452L113.613 49.1144C113.082 49.4252 112.694 49.9371 112.536 50.5375C112.377 51.1379 112.46 51.7777 112.767 52.316C113.073 52.8544 113.578 53.2472 114.171 53.4081C114.763 53.569 115.395 53.4848 115.926 53.174L123.222 48.9046L120.908 44.8452Z" fill="url(#paint25_linear)"/>
<path d="M99.7473 25.1143L95.5349 32.5079C95.2282 33.0462 95.1451 33.6859 95.3039 34.2864C95.4626 34.8868 95.8502 35.3987 96.3814 35.7095C96.9126 36.0203 97.5438 36.1045 98.1362 35.9437C98.7286 35.7828 99.2337 35.3899 99.5404 34.8516L103.753 27.4571L99.7473 25.1143Z" fill="url(#paint26_linear)"/>
<defs>
<linearGradient id="paint0_linear" x1="37" y1="75" x2="111" y2="75" gradientUnits="userSpaceOnUse">
<stop stop-color="#F4F42A"/>
<stop offset="1" stop-color="#FFB92B"/>
</linearGradient>
<linearGradient id="paint1_linear" x1="67.1758" y1="62.5712" x2="53.7465" y2="43.907" gradientUnits="userSpaceOnUse">
<stop stop-color="#FEFFC0" stop-opacity="0"/>
<stop offset="1" stop-color="#F8FF9B"/>
</linearGradient>
<linearGradient id="paint2_linear" x1="224.312" y1="188.506" x2="215.062" y2="188.506" gradientUnits="userSpaceOnUse">
<stop stop-color="#F4F42A"/>
<stop offset="1" stop-color="#FFB92B"/>
</linearGradient>
<linearGradient id="paint3_linear" x1="275.598" y1="204.333" x2="259.419" y2="210.807" gradientUnits="userSpaceOnUse">
<stop stop-color="#F4F42A"/>
<stop offset="1" stop-color="#FFB92B"/>
</linearGradient>
<linearGradient id="paint4_linear" x1="267.453" y1="334.153" x2="254.787" y2="367.015" gradientUnits="userSpaceOnUse">
<stop stop-color="#F4F42A"/>
<stop offset="1" stop-color="#FFB92B"/>
</linearGradient>
<linearGradient id="paint5_linear" x1="166.669" y1="217.969" x2="166.669" y2="226.505" gradientUnits="userSpaceOnUse">
<stop stop-color="#F4F42A"/>
<stop offset="1" stop-color="#FFB92B"/>
</linearGradient>
<linearGradient id="paint6_linear" x1="245.549" y1="797.736" x2="256.358" y2="825.759" gradientUnits="userSpaceOnUse">
<stop stop-color="#F4F42A"/>
<stop offset="1" stop-color="#FFB92B"/>
</linearGradient>
<linearGradient id="paint7_linear" x1="259.641" y1="938.269" x2="279.345" y2="946.138" gradientUnits="userSpaceOnUse">
<stop stop-color="#F4F42A"/>
<stop offset="1" stop-color="#FFB92B"/>
</linearGradient>
<linearGradient id="paint8_linear" x1="215.062" y1="1680.67" x2="224.312" y2="1680.67" gradientUnits="userSpaceOnUse">
<stop stop-color="#F4F42A"/>
<stop offset="1" stop-color="#FFB92B"/>
</linearGradient>
<linearGradient id="paint9_linear" x1="567.107" y1="952.827" x2="589.113" y2="944.034" gradientUnits="userSpaceOnUse">
<stop stop-color="#F4F42A"/>
<stop offset="1" stop-color="#FFB92B"/>
</linearGradient>
<linearGradient id="paint10_linear" x1="1388.47" y1="823.253" x2="1400.88" y2="791.089" gradientUnits="userSpaceOnUse">
<stop stop-color="#F4F42A"/>
<stop offset="1" stop-color="#FFB92B"/>
</linearGradient>
<linearGradient id="paint11_linear" x1="1082.32" y1="227.344" x2="1082.32" y2="217.969" gradientUnits="userSpaceOnUse">
<stop stop-color="#F4F42A"/>
<stop offset="1" stop-color="#FFB92B"/>
</linearGradient>
<linearGradient id="paint12_linear" x1="1412.43" y1="361.684" x2="1400.02" y2="329.52" gradientUnits="userSpaceOnUse">
<stop stop-color="#F4F42A"/>
<stop offset="1" stop-color="#FFB92B"/>
</linearGradient>
<linearGradient id="paint13_linear" x1="586.247" y1="219.071" x2="564.24" y2="210.278" gradientUnits="userSpaceOnUse">
<stop stop-color="#F4F42A"/>
<stop offset="1" stop-color="#FFB92B"/>
</linearGradient>
<linearGradient id="paint14_linear" x1="74" y1="84.375" x2="74" y2="112.5" gradientUnits="userSpaceOnUse">
<stop stop-color="#FFB92B" stop-opacity="0"/>
<stop offset="1" stop-color="#FFB92B"/>
</linearGradient>
<linearGradient id="paint15_linear" x1="71.6875" y1="105.808" x2="93.0056" y2="147.875" gradientUnits="userSpaceOnUse">
<stop stop-color="#FFB92B" stop-opacity="0"/>
<stop offset="1" stop-color="#FFB92B"/>
</linearGradient>
<linearGradient id="paint16_linear" x1="66.6821" y1="122.463" x2="102.976" y2="158.011" gradientUnits="userSpaceOnUse">
<stop stop-color="#FFB92B" stop-opacity="0"/>
<stop offset="1" stop-color="#FFB92B"/>
</linearGradient>
<linearGradient id="paint17_linear" x1="82.7015" y1="137.697" x2="121.123" y2="151.733" gradientUnits="userSpaceOnUse">
<stop stop-color="#FFB92B" stop-opacity="0"/>
<stop offset="1" stop-color="#FFB92B"/>
</linearGradient>
<linearGradient id="paint18_linear" x1="108.687" y1="131.25" x2="130.971" y2="129.21" gradientUnits="userSpaceOnUse">
<stop stop-color="#FFB92B" stop-opacity="0"/>
<stop offset="1" stop-color="#FFB92B"/>
</linearGradient>
<linearGradient id="paint19_linear" x1="176.072" y1="72.8754" x2="207.845" y2="46.8648" gradientUnits="userSpaceOnUse">
<stop stop-color="#FFB92B" stop-opacity="0"/>
<stop offset="1" stop-color="#FFB92B"/>
</linearGradient>
<linearGradient id="paint20_linear" x1="162.053" y1="-19.2647" x2="175.264" y2="-68.6316" gradientUnits="userSpaceOnUse">
<stop stop-color="#FFB92B" stop-opacity="0"/>
<stop offset="1" stop-color="#FFB92B"/>
</linearGradient>
<linearGradient id="paint21_linear" x1="76.3125" y1="-57.4261" x2="54.9943" y2="-99.493" gradientUnits="userSpaceOnUse">
<stop stop-color="#FFB92B" stop-opacity="0"/>
<stop offset="1" stop-color="#FFB92B"/>
</linearGradient>
<linearGradient id="paint22_linear" x1="-6.66895" y1="-23.5869" x2="-42.9624" y2="-59.1348" gradientUnits="userSpaceOnUse">
<stop stop-color="#FFB92B" stop-opacity="0"/>
<stop offset="1" stop-color="#FFB92B"/>
</linearGradient>
<linearGradient id="paint23_linear" x1="-22.6901" y1="63.4277" x2="-61.1116" y2="49.392" gradientUnits="userSpaceOnUse">
<stop stop-color="#FFB92B" stop-opacity="0"/>
<stop offset="1" stop-color="#FFB92B"/>
</linearGradient>
<linearGradient id="paint24_linear" x1="39.3125" y1="120.368" x2="17.0292" y2="122.407" gradientUnits="userSpaceOnUse">
<stop stop-color="#FFB92B" stop-opacity="0"/>
<stop offset="1" stop-color="#FFB92B"/>
</linearGradient>
<linearGradient id="paint25_linear" x1="59.9146" y1="128.248" x2="28.1414" y2="154.259" gradientUnits="userSpaceOnUse">
<stop stop-color="#FFB92B" stop-opacity="0"/>
<stop offset="1" stop-color="#FFB92B"/>
</linearGradient>
<linearGradient id="paint26_linear" x1="73.9365" y1="118.135" x2="60.7263" y2="167.498" gradientUnits="userSpaceOnUse">
<stop stop-color="#FFB92B" stop-opacity="0"/>
<stop offset="1" stop-color="#FFB92B"/>
</linearGradient>
</defs>
</svg>
