<svg width="152" height="129" viewBox="0 0 152 129" fill="none" xmlns="http://www.w3.org/2000/svg">
<path d="M102.437 20.9415C97.1845 20.9246 92.0337 22.4087 87.5748 25.2236C83.1158 28.0385 79.5292 32.0704 77.2258 36.8571C76.889 37.5528 76.8003 38.3454 76.975 39.1C77.1498 39.8545 77.577 40.5243 78.1841 40.9952C81.3496 43.4319 84.1779 46.2887 86.5933 49.4891C87.0825 50.1341 87.7866 50.5766 88.574 50.7338C89.3614 50.891 90.1783 50.7523 90.8722 50.3435C92.5904 49.338 94.5098 48.7376 96.488 48.5868C98.4662 48.436 100.452 48.7387 102.3 49.4725C104.147 50.2063 105.807 51.3523 107.158 52.8256C108.509 54.2988 109.515 56.0615 110.103 57.983C110.321 58.689 110.763 59.302 111.361 59.7262C111.959 60.1505 112.678 60.3623 113.407 60.3284C113.853 60.3284 114.299 60.3284 114.762 60.3284C118.02 60.313 121.257 60.8452 124.344 61.9032C124.685 62.017 125.042 62.0736 125.401 62.0708C126.058 62.0694 126.7 61.8695 127.244 61.4964C127.789 61.1234 128.211 60.5943 128.458 59.9766C129.812 56.6267 130.513 53.0425 130.523 49.4221C130.523 41.8686 127.564 34.6244 122.297 29.2833C117.029 23.9422 109.886 20.9415 102.437 20.9415Z" fill="url(#paint0_linear)"/>
<path d="M102.437 18.4286C101.561 18.4286 100.72 18.0756 100.1 17.4472C99.4808 16.8188 99.1327 15.9666 99.1327 15.0779V3.35065C99.1327 2.462 99.4808 1.60975 100.1 0.981383C100.72 0.353014 101.561 0 102.437 0C103.313 0 104.154 0.353014 104.773 0.981383C105.393 1.60975 105.741 2.462 105.741 3.35065V15.0779C105.741 15.9666 105.393 16.8188 104.773 17.4472C104.154 18.0756 103.313 18.4286 102.437 18.4286Z" fill="url(#paint1_linear)"/>
<path d="M80.2327 27.7433C79.6136 28.3674 78.7761 28.7177 77.9032 28.7177C77.0303 28.7177 76.1928 28.3674 75.5737 27.7433L67.3132 19.4672C67.0062 19.1559 66.7627 18.7864 66.5966 18.3796C66.4304 17.9729 66.3449 17.5369 66.3449 17.0967C66.3449 16.6564 66.4304 16.2204 66.5966 15.8137C66.7627 15.407 67.0062 15.0374 67.3132 14.7261C67.6202 14.4148 67.9847 14.1678 68.3858 13.9993C68.7869 13.8309 69.2168 13.7441 69.6509 13.7441C70.0851 13.7441 70.515 13.8309 70.9161 13.9993C71.3172 14.1678 71.6817 14.4148 71.9887 14.7261L80.15 23.0189C80.7766 23.6356 81.1369 24.4786 81.1524 25.3639C81.1679 26.2491 80.8372 27.1046 80.2327 27.7433Z" fill="url(#paint2_linear)"/>
<path d="M133.827 50.2598C133.827 49.3712 134.175 48.5189 134.795 47.8906C135.414 47.2622 136.255 46.9092 137.131 46.9092H148.696C149.572 46.9092 150.413 47.2622 151.032 47.8906C151.652 48.5189 152 49.3712 152 50.2598C152 51.1485 151.652 52.0007 151.032 52.6291C150.413 53.2575 149.572 53.6105 148.696 53.6105H137.131C136.255 53.6105 135.414 53.2575 134.795 52.6291C134.175 52.0007 133.827 51.1485 133.827 50.2598Z" fill="url(#paint3_linear)"/>
<path d="M124.641 27.7433C124.026 27.1156 123.68 26.2663 123.68 25.3811C123.68 24.4959 124.026 23.6467 124.641 23.0189L132.803 14.7261C133.423 14.0974 134.263 13.7441 135.14 13.7441C136.017 13.7441 136.858 14.0974 137.478 14.7261C138.098 15.3548 138.446 16.2075 138.446 17.0967C138.446 17.9858 138.098 18.8385 137.478 19.4672L129.3 27.7433C128.681 28.3674 127.844 28.7177 126.971 28.7177C126.098 28.7177 125.26 28.3674 124.641 27.7433Z" fill="url(#paint4_linear)"/>
<path d="M142.253 65.857C138.841 62.0902 134.712 59.0632 130.115 56.9584C125.518 54.8536 120.548 53.7147 115.505 53.6104C113.387 48.9229 109.574 45.2398 104.855 43.3222C100.135 41.4046 94.8689 41.3992 90.1453 43.3071C85.3572 37.5821 79.3921 32.9884 72.6682 29.8484C65.9442 26.7083 58.6243 25.0978 51.2217 25.1299C44.1781 25.129 37.21 26.6014 30.753 29.4551C24.296 32.3088 18.4889 36.4824 13.6947 41.7151C8.90042 46.9478 5.2221 53.1271 2.88962 59.8667C0.55715 66.6063 -0.379333 73.7614 0.138713 80.8847C1.98907 106.969 25.8289 129 52.1965 129H114.002C133.513 129 150.1 113.922 151.785 94.7228C152.282 89.5025 151.691 84.2344 150.048 79.2612C148.406 74.288 145.75 69.721 142.253 65.857Z" fill="url(#paint5_linear)"/>
<defs>
<linearGradient id="paint0_linear" x1="88.2288" y1="62.3723" x2="123.491" y2="27.5989" gradientUnits="userSpaceOnUse">
<stop stop-color="#FFB300"/>
<stop offset="0.2" stop-color="#FFB606"/>
<stop offset="0.46" stop-color="#FFBD18"/>
<stop offset="0.76" stop-color="#FFC934"/>
<stop offset="1" stop-color="#FFD54F"/>
</linearGradient>
<linearGradient id="paint1_linear" x1="501.188" y1="325.449" x2="575.201" y2="298.908" gradientUnits="userSpaceOnUse">
<stop stop-color="#FFB300"/>
<stop offset="0.2" stop-color="#FFB606"/>
<stop offset="0.46" stop-color="#FFBD18"/>
<stop offset="0.76" stop-color="#FFC934"/>
<stop offset="1" stop-color="#FFD54F"/>
</linearGradient>
<linearGradient id="paint2_linear" x1="736.556" y1="359.483" x2="778.929" y2="317.579" gradientUnits="userSpaceOnUse">
<stop stop-color="#FFB300"/>
<stop offset="0.2" stop-color="#FFB606"/>
<stop offset="0.46" stop-color="#FFBD18"/>
<stop offset="0.76" stop-color="#FFC934"/>
<stop offset="1" stop-color="#FFD54F"/>
</linearGradient>
<linearGradient id="paint3_linear" x1="1684.72" y1="329.436" x2="1712.22" y2="254.871" gradientUnits="userSpaceOnUse">
<stop stop-color="#FFB300"/>
<stop offset="0.2" stop-color="#FFB606"/>
<stop offset="0.46" stop-color="#FFBD18"/>
<stop offset="0.76" stop-color="#FFC934"/>
<stop offset="1" stop-color="#FFD54F"/>
</linearGradient>
<linearGradient id="paint4_linear" x1="1267.16" y1="396.468" x2="1383.49" y2="281.747" gradientUnits="userSpaceOnUse">
<stop stop-color="#FFB300"/>
<stop offset="0.2" stop-color="#FFB606"/>
<stop offset="0.46" stop-color="#FFBD18"/>
<stop offset="0.76" stop-color="#FFC934"/>
<stop offset="1" stop-color="#FFD54F"/>
</linearGradient>
<linearGradient id="paint5_linear" x1="76.0033" y1="129.419" x2="76.0033" y2="37.6613" gradientUnits="userSpaceOnUse">
<stop stop-color="#4286F4"/>
<stop offset="1" stop-color="#81D4FA"/>
</linearGradient>
</defs>
</svg>
