<svg width="220" height="158" viewBox="0 0 220 158" fill="none" xmlns="http://www.w3.org/2000/svg">
<g clip-path="url(#clip0)">
<path d="M140.784 35.5544C132.116 35.5544 120.877 32.3703 114.693 36.1799C106.857 41.0066 101.864 48.2648 101.864 56.3672C101.864 59.6611 102.682 62.8776 104.294 65.9274C104.89 67.0547 106.612 67.6127 108.14 67.1723C109.295 66.8399 110.007 66.0327 110.029 65.1717L164.506 65.9126C164.485 66.7724 165.155 67.5975 166.29 67.962C166.676 68.0861 167.078 68.1447 167.474 68.1447C168.62 68.1447 167.536 67.5281 168.022 66.7032C169.971 63.3985 166.206 60.9612 166.206 57.3251C166.206 42.8273 160.434 35.5544 140.784 35.5544Z" fill="#FFD92E"/>
<path d="M173.136 56.3671C173.136 60.0042 172.149 63.5234 170.2 66.8262C169.71 67.6505 168.619 68.1436 167.475 68.1436C167.078 68.1436 166.678 68.0862 166.291 67.9628C165.155 67.5959 164.487 66.7713 164.506 65.9116L136.91 65.5363C137.304 63.9699 137.5 62.3705 137.5 60.7491C137.5 49.5749 128.001 40.0057 114.649 36.21C120.841 32.3813 128.814 30.0752 137.5 30.0752C157.148 30.0752 173.136 41.8709 173.136 56.3671Z" fill="#FCBE00"/>
<path d="M195.534 98.1447L172.633 95.1745C176.926 92.275 174.593 87.0508 174.593 82.5885C174.593 73.7865 178.446 68.209 165.686 68.209L134.601 66.5873L85.9977 65.5998C88.5994 63.4298 74.8168 63.4603 74.8168 60.4309C74.8168 53.515 79.8205 49.058 69.7946 49.058L44.6531 45.0762H22.3945C12.3686 45.0762 3.4375 48.6309 3.4375 55.5468C3.4375 62.4626 10.8758 66.8703 20.9013 66.8703L31.3453 67.2949C27.0518 70.1945 20.7414 77.1005 20.7414 81.5627C20.7414 90.3648 31.5911 96.3067 44.3511 96.3067L111.744 96.1651C108.597 98.5876 100.906 104.127 100.906 107.628C100.906 115.173 105.675 120.33 116.612 120.33L170.86 121.78L193.924 118.145C204.861 118.145 200.083 116.082 200.083 108.537C200.082 100.993 206.471 98.1447 195.534 98.1447Z" fill="#00CDF4"/>
<path d="M85.1409 57.2473C85.1409 60.2774 82.5829 63.4309 79.9833 65.6003H56.2461C58.8453 63.4312 60.4115 60.6489 60.4115 57.6188C60.4115 50.7036 52.2543 45.0767 42.2293 45.0767H71.9821C82.0076 45.0764 85.1409 50.3317 85.1409 57.2473ZM215.788 108.499C215.788 116.045 206.891 122.182 195.953 122.182H166.2C177.138 122.182 186.035 116.044 186.035 108.499C186.035 100.954 177.138 94.8167 166.2 94.8167H149.319C153.612 91.9178 156.282 87.8758 156.282 83.4148C156.282 74.6125 145.902 67.4519 133.141 67.4519H162.894C175.655 67.4519 186.035 74.6125 186.035 83.4148C186.035 87.8758 176.73 92.9837 172.436 95.8826L195.097 96.8732C206.036 96.8729 215.788 100.954 215.788 108.499Z" fill="#00A9DE"/>
<path d="M199.375 93.8125H181.824C186.288 90.6735 189.062 86.2995 189.062 81.4688C189.062 74.9475 184.006 69.2599 176.561 66.318C178.014 63.2611 178.75 60.0635 178.75 56.7812C178.75 40.4458 160.246 27.1562 137.5 27.1562C114.754 27.1562 96.25 40.4458 96.25 56.7812C96.25 59.3012 96.6969 61.7795 97.5614 64.1875H85.0425C87.7478 61.8382 89.375 58.8266 89.375 55.5469C89.375 48.0598 80.8938 41.9688 70.4688 41.9688H18.9062C8.48117 41.9688 0 48.0598 0 55.5469C0 63.034 8.48117 69.125 18.9062 69.125H24.426C19.9616 72.264 17.1875 76.638 17.1875 81.4688C17.1875 90.9975 27.9821 98.75 41.25 98.75H101.515C98.2425 101.372 96.25 104.835 96.25 108.625C96.25 116.793 105.502 123.438 116.875 123.438H199.375C210.748 123.438 220 116.793 220 108.625C220 100.457 210.748 93.8125 199.375 93.8125ZM137.5 32.0938C156.454 32.0938 171.875 43.1686 171.875 56.7812C171.875 59.4669 171.277 62.0817 170.112 64.5837C168.463 64.3267 166.754 64.1875 165 64.1875H104.708C103.663 61.799 103.125 59.316 103.125 56.7812C103.125 43.1686 118.546 32.0938 137.5 32.0938ZM199.375 118.5H116.875C109.293 118.5 103.125 114.07 103.125 108.625C103.125 103.18 109.293 98.75 116.875 98.75C118.773 98.75 120.312 97.6446 120.312 96.2812C120.312 94.9179 118.773 93.8125 116.875 93.8125H41.25C31.7728 93.8125 24.0625 88.2751 24.0625 81.4688C24.0625 74.6624 31.7728 69.125 41.25 69.125C43.1484 69.125 44.6875 68.0196 44.6875 66.6562C44.6875 65.2929 43.1484 64.1875 41.25 64.1875H18.9062C12.2723 64.1875 6.875 60.3113 6.875 55.5469C6.875 50.7825 12.2723 46.9062 18.9062 46.9062H70.4688C77.1027 46.9062 82.5 50.7825 82.5 55.5469C82.5 60.3113 77.1027 64.1875 70.4688 64.1875C68.5704 64.1875 67.0312 65.2929 67.0312 66.6562C67.0312 68.0196 68.5704 69.125 70.4688 69.125H165C174.477 69.125 182.188 74.6624 182.188 81.4688C182.188 88.2751 174.477 93.8125 165 93.8125C163.102 93.8125 161.562 94.9179 161.562 96.2812C161.562 97.6446 163.102 98.75 165 98.75H199.375C206.957 98.75 213.125 103.18 213.125 108.625C213.125 114.07 206.957 118.5 199.375 118.5ZM137.5 22.2188C139.398 22.2188 140.938 21.1134 140.938 19.75V2.46875C140.938 1.10538 139.398 0 137.5 0C135.602 0 134.062 1.10538 134.062 2.46875V19.75C134.062 21.1134 135.602 22.2188 137.5 22.2188Z" fill="black"/>
<path d="M185.625 56.7812C185.625 58.1446 187.164 59.2499 189.062 59.2499H213.125C215.023 59.2499 216.562 58.1446 216.562 56.7812C216.562 55.4178 215.023 54.3124 213.125 54.3124H189.062C187.164 54.3124 185.625 55.4178 185.625 56.7812ZM178.75 31.9696C179.63 31.9696 180.51 31.7286 181.181 31.2466L198.196 19.0269C199.538 18.0629 199.538 16.4998 198.196 15.5358C196.853 14.5717 194.677 14.5717 193.334 15.5358L176.32 27.7555C174.977 28.7195 174.977 30.2825 176.32 31.2466C176.99 31.7286 177.87 31.9696 178.75 31.9696ZM93.6465 31.2466C94.3177 31.7286 95.1973 31.9696 96.0773 31.9696C96.9573 31.9696 97.8368 31.7286 98.508 31.2466C99.8508 30.2825 99.8508 28.7195 98.508 27.7555L81.4932 15.5358C80.1509 14.5717 77.9745 14.5717 76.6322 15.5358C75.2894 16.4998 75.2894 18.0629 76.6322 19.0269L93.6465 31.2466ZM17.1875 103.687C15.2891 103.687 13.75 104.793 13.75 106.156V111.094C13.75 112.457 15.2891 113.562 17.1875 113.562C19.0859 113.562 20.625 112.457 20.625 111.094V106.156C20.625 104.793 19.0859 103.687 17.1875 103.687ZM58.4375 103.687C56.5391 103.687 55 104.793 55 106.156V111.094C55 112.457 56.5391 113.562 58.4375 113.562C60.3359 113.562 61.875 112.457 61.875 111.094V106.156C61.875 104.793 60.3359 103.687 58.4375 103.687ZM37.8125 120.969C35.9141 120.969 34.375 122.074 34.375 123.437V128.375C34.375 129.738 35.9141 130.844 37.8125 130.844C39.7109 130.844 41.25 129.738 41.25 128.375V123.437C41.25 122.074 39.7109 120.969 37.8125 120.969ZM89.375 130.844C87.4766 130.844 85.9375 131.949 85.9375 133.312V138.25C85.9375 139.613 87.4766 140.719 89.375 140.719C91.2734 140.719 92.8125 139.613 92.8125 138.25V133.312C92.8125 131.949 91.2734 130.844 89.375 130.844ZM130.625 130.844C128.727 130.844 127.188 131.949 127.188 133.312V138.25C127.188 139.613 128.727 140.719 130.625 140.719C132.523 140.719 134.062 139.613 134.062 138.25V133.312C134.062 131.949 132.523 130.844 130.625 130.844ZM110 148.125C108.102 148.125 106.562 149.23 106.562 150.594V155.531C106.562 156.895 108.102 158 110 158C111.898 158 113.438 156.895 113.438 155.531V150.594C113.438 149.23 111.898 148.125 110 148.125ZM79.0625 78.9999H48.125C46.2266 78.9999 44.6875 80.1053 44.6875 81.4687C44.6875 82.8321 46.2266 83.9374 48.125 83.9374H79.0625C80.9609 83.9374 82.5 82.8321 82.5 81.4687C82.5 80.1053 80.9609 78.9999 79.0625 78.9999ZM178.75 106.156H147.812C145.914 106.156 144.375 107.262 144.375 108.625C144.375 109.988 145.914 111.094 147.812 111.094H178.75C180.648 111.094 182.188 109.988 182.188 108.625C182.188 107.262 180.648 106.156 178.75 106.156Z" fill="black"/>
</g>
<defs>
<clipPath id="clip0">
<rect width="220" height="158" fill="white"/>
</clipPath>
</defs>
</svg>
