<svg width="182" height="188" viewBox="0 0 182 188" fill="none" xmlns="http://www.w3.org/2000/svg">
<path d="M91 152.75C122.411 152.75 147.875 126.447 147.875 94C147.875 61.5533 122.411 35.25 91 35.25C59.5888 35.25 34.125 61.5533 34.125 94C34.125 126.447 59.5888 152.75 91 152.75Z" fill="#FFED09" stroke="#F4F42A" stroke-width="2" stroke-linecap="round" stroke-linejoin="round"/>
<path d="M123.703 35.485L133.656 17.6837M91 26.4375V5.875V26.4375ZM58.2969 35.485L48.3438 17.6837L58.2969 35.485ZM34.3525 60.2188L17.1194 49.9375L34.3525 60.2188ZM25.5938 94H5.6875H25.5938ZM34.3525 127.781L17.1194 138.062L34.3525 127.781ZM58.2969 152.515L48.3438 170.316L58.2969 152.515ZM91 161.562V182.125V161.562ZM123.703 152.515L133.656 170.316L123.703 152.515ZM147.647 127.781L164.881 138.062L147.647 127.781ZM156.406 94H176.312H156.406ZM147.647 60.2188L164.881 49.9375L147.647 60.2188Z" stroke="#F4F42A" stroke-width="2" stroke-linecap="round" stroke-linejoin="round"/>
<path d="M72.5156 102.812H109.484V104.281C109.484 109.345 107.537 114.202 104.07 117.783C100.604 121.363 95.9024 123.375 91 123.375C86.0976 123.375 81.3961 121.363 77.9296 117.783C74.4631 114.202 72.5156 109.345 72.5156 104.281V102.812Z" fill="#F7F8F9"/>
<path d="M108.062 79.3125C108.062 77.7544 108.662 76.26 109.728 75.1582C110.795 74.0565 112.242 73.4375 113.75 73.4375C115.258 73.4375 116.705 74.0565 117.772 75.1582C118.838 76.26 119.438 77.7544 119.438 79.3125M62.5625 79.3125C62.5625 77.7544 63.1617 76.26 64.2283 75.1582C65.2949 74.0565 66.7416 73.4375 68.25 73.4375C69.7584 73.4375 71.2051 74.0565 72.2717 75.1582C73.3383 76.26 73.9375 77.7544 73.9375 79.3125H62.5625Z" stroke="#1C1C1C" stroke-width="2" stroke-miterlimit="10" stroke-linecap="round"/>
<path d="M55.4531 102.812C62.5206 102.812 68.25 100.182 68.25 96.9375C68.25 93.6928 62.5206 91.0625 55.4531 91.0625C48.3856 91.0625 42.6562 93.6928 42.6562 96.9375C42.6562 100.182 48.3856 102.812 55.4531 102.812Z" fill="#F5003C"/>
<path d="M126.547 102.812C133.614 102.812 139.344 100.182 139.344 96.9375C139.344 93.6928 133.614 91.0625 126.547 91.0625C119.479 91.0625 113.75 93.6928 113.75 96.9375C113.75 100.182 119.479 102.812 126.547 102.812Z" fill="#F5003C"/>
</svg>
