<svg width="66" height="52" viewBox="0 0 66 52" fill="none" xmlns="http://www.w3.org/2000/svg">
<g filter="url(#filter0_d)">
<path d="M53.7217 25.4021V41.5139C53.7217 42.0958 53.4939 42.5993 53.0382 43.0244C52.5825 43.4496 52.0429 43.6622 51.4193 43.6622H37.6048V30.7727H28.3952V43.6622H14.5807C13.9571 43.6622 13.4175 43.4496 12.9618 43.0244C12.5061 42.5993 12.2783 42.0958 12.2783 41.5139V25.4021C12.2783 25.3797 12.2843 25.3462 12.2963 25.3014C12.3083 25.2566 12.3143 25.2231 12.3143 25.2007L33 9.29024L53.6857 25.2007C53.7097 25.2455 53.7217 25.3126 53.7217 25.4021ZM61.7442 23.086L59.5137 25.5699C59.3218 25.7713 59.07 25.8944 58.7582 25.9392H58.6503C58.3385 25.9392 58.0867 25.8608 57.8948 25.7042L33 6.3364L8.10517 25.7042C7.81737 25.8832 7.52957 25.9615 7.24176 25.9392C6.92998 25.8944 6.67815 25.7713 6.48629 25.5699L4.25582 23.086C4.06396 22.8622 3.98001 22.5993 4.004 22.2972C4.02798 21.9951 4.15989 21.7546 4.39972 21.5755L30.2659 1.46928C31.0334 0.887466 31.9447 0.596558 33 0.596558C34.0553 0.596558 34.9666 0.887466 35.7341 1.46928L44.5121 8.31682V1.77138C44.5121 1.45809 44.62 1.20075 44.8358 0.999354C45.0517 0.797956 45.3275 0.697257 45.6633 0.697257H52.5705C52.9063 0.697257 53.1821 0.797956 53.3979 0.999354C53.6138 1.20075 53.7217 1.45809 53.7217 1.77138V15.4665L61.6003 21.5755C61.8401 21.7546 61.972 21.9951 61.996 22.2972C62.02 22.5993 61.936 22.8622 61.7442 23.086Z" fill="#FE4D9F"/>
</g>
<defs>
<filter id="filter0_d" x="0" y="0.596558" width="66" height="51.0656" filterUnits="userSpaceOnUse" color-interpolation-filters="sRGB">
<feFlood flood-opacity="0" result="BackgroundImageFix"/>
<feColorMatrix in="SourceAlpha" type="matrix" values="0 0 0 0 0 0 0 0 0 0 0 0 0 0 0 0 0 0 127 0" result="hardAlpha"/>
<feOffset dy="4"/>
<feGaussianBlur stdDeviation="2"/>
<feComposite in2="hardAlpha" operator="out"/>
<feColorMatrix type="matrix" values="0 0 0 0 0 0 0 0 0 0 0 0 0 0 0 0 0 0 0.25 0"/>
<feBlend mode="normal" in2="BackgroundImageFix" result="effect1_dropShadow"/>
<feBlend mode="normal" in="SourceGraphic" in2="effect1_dropShadow" result="shape"/>
</filter>
</defs>
</svg>
