<svg width="151" height="146" viewBox="0 0 151 146" fill="none" xmlns="http://www.w3.org/2000/svg">
<path d="M75.5 32.5623C68.1717 32.5606 60.9609 34.3277 54.5324 37.7007C48.104 41.0737 42.6648 45.9441 38.7164 51.8626C34.768 57.7812 32.4375 64.5575 31.9398 71.5667C31.442 78.576 32.7931 85.5926 35.8683 91.9695C39.2095 93.3661 42.8166 94.0827 46.4615 94.0741C51.6299 94.107 56.689 92.6481 60.9808 89.8872C65.2874 87.1567 70.3367 85.7008 75.5 85.7008C80.6633 85.7008 85.7126 87.1567 90.0192 89.8872C94.3095 92.6512 99.3696 94.1104 104.538 94.0741C108.187 94.0826 111.798 93.366 115.143 91.9695C118.212 85.5912 119.558 78.5752 119.057 71.5673C118.556 64.5595 116.224 57.7852 112.275 51.8682C108.327 45.9512 102.889 41.0816 96.4623 37.7078C90.0357 34.3341 82.8271 32.5646 75.5 32.5623Z" fill="#FFB100"/>
<path d="M32.6509 82.5158C38.3578 88.0224 45.6791 91.7318 53.6399 93.1501C51.3045 93.7627 48.8943 94.0735 46.4732 94.0743C42.8246 94.0819 39.2139 93.3653 35.8683 91.9697C34.4036 88.9538 33.3233 85.7796 32.6509 82.5158ZM119.162 74.387C119.17 80.4473 117.798 86.4363 115.143 91.9363C111.8 93.3428 108.189 94.0707 104.538 94.0743C99.3698 94.1092 94.3101 92.6502 90.0192 89.8874C88.2263 88.7018 86.2722 87.7576 84.2115 87.0813C89.2653 83.8278 93.411 79.4372 96.2862 74.2933C99.1614 69.1493 100.679 63.4084 100.705 57.5725C100.7 49.7912 97.9996 42.2318 93.0276 36.0812C100.794 39.343 107.401 44.7024 112.042 51.505C116.683 58.3075 119.157 66.2586 119.162 74.387ZM124.436 53.2297L134.646 51.0026L125.771 56.3365C125.575 56.4647 125.354 56.5538 125.122 56.5983C124.889 56.6429 124.649 56.642 124.417 56.5958C124.185 56.5495 123.965 56.4589 123.77 56.3292C123.575 56.1995 123.409 56.0335 123.282 55.8411C123.156 55.6487 123.071 55.4338 123.033 55.2092C122.995 54.9847 123.005 54.7551 123.062 54.5342C123.118 54.3133 123.221 54.1057 123.363 53.9236C123.505 53.7416 123.684 53.5889 123.89 53.4747C124.055 53.3629 124.24 53.2799 124.436 53.2297ZM73.7577 22.9526L75.5 8.05347L77.2423 22.9526C77.2835 23.3901 77.1444 23.8257 76.8548 24.1661C76.5653 24.5066 76.1483 24.7249 75.693 24.7743C75.2377 24.8238 74.7803 24.7005 74.4186 24.4308C74.0569 24.1611 73.8197 23.7664 73.7577 23.3312C73.7461 23.2053 73.7461 23.0786 73.7577 22.9526ZM129.186 72.7612L144.739 74.387L129.186 76.0573C128.953 76.0899 128.716 76.0772 128.488 76.0199C128.26 75.9626 128.046 75.8619 127.86 75.7238C127.674 75.5857 127.518 75.413 127.403 75.216C127.288 75.019 127.215 74.8018 127.189 74.5773C127.164 74.3529 127.185 74.1257 127.253 73.9094C127.321 73.6931 127.433 73.4922 127.584 73.3185C127.735 73.1449 127.92 73.0021 128.13 72.8987C128.339 72.7953 128.568 72.7334 128.803 72.7166C128.932 72.7147 129.061 72.7296 129.186 72.7612ZM21.8137 76.1018L6.2607 74.387L21.8137 72.7166C22.0468 72.684 22.2844 72.6967 22.5122 72.754C22.7401 72.8113 22.9536 72.912 23.14 73.0501C23.3263 73.1882 23.4818 73.3609 23.597 73.5579C23.7122 73.7549 23.7849 73.9721 23.8107 74.1966C23.8364 74.4211 23.8147 74.6482 23.7469 74.8645C23.6791 75.0808 23.5665 75.2817 23.4159 75.4554C23.2653 75.629 23.0798 75.7718 22.8704 75.8752C22.6609 75.9787 22.4319 76.0406 22.197 76.0573L21.8137 76.1018ZM112.228 36.8496L124.459 27.4958L114.69 39.2103C114.551 39.3935 114.374 39.5478 114.171 39.6639C113.968 39.78 113.742 39.8554 113.508 39.8857C113.273 39.916 113.035 39.9005 112.807 39.8401C112.579 39.7798 112.366 39.6758 112.181 39.5345C111.995 39.3932 111.842 39.2174 111.73 39.0178C111.617 38.8182 111.548 38.5989 111.527 38.373C111.505 38.1471 111.531 37.9194 111.604 37.7035C111.677 37.4876 111.794 37.2881 111.949 37.1168C112.033 37.0196 112.126 36.9301 112.228 36.8496ZM36.2981 39.2103L26.5412 27.4958L38.7722 36.8496C39.1357 37.1287 39.3686 37.5347 39.4198 37.9785C39.471 38.4223 39.3362 38.8674 39.0451 39.2158C38.754 39.5643 38.3304 39.7877 37.8675 39.8368C37.4046 39.8858 36.9404 39.7566 36.5769 39.4775C36.4727 39.4 36.379 39.3102 36.2981 39.2103ZM53.3495 27.5181L51.0264 17.7301L56.5902 26.2376C56.713 26.4262 56.7958 26.6362 56.8339 26.8555C56.8721 27.0748 56.8648 27.2992 56.8125 27.5158C56.7602 27.7325 56.6638 27.9371 56.529 28.118C56.3942 28.299 56.2236 28.4527 56.0268 28.5704C55.83 28.6881 55.611 28.7675 55.3822 28.8041C55.1535 28.8407 54.9194 28.8337 54.6934 28.7835C54.4675 28.7334 54.254 28.6411 54.0653 28.5118C53.8765 28.3826 53.7162 28.219 53.5934 28.0303C53.4784 27.8763 53.3956 27.7023 53.3495 27.5181ZM94.4331 26.2376L99.9968 17.7301L97.6738 27.5181C97.6219 27.7375 97.5255 27.9449 97.39 28.1285C97.2545 28.3121 97.0827 28.4684 96.8842 28.5883C96.6857 28.7083 96.4646 28.7896 96.2334 28.8276C96.0021 28.8656 95.7654 28.8595 95.5365 28.8098C95.3077 28.7601 95.0914 28.6677 94.8999 28.5378C94.7083 28.4079 94.5453 28.2431 94.4202 28.0529C94.2951 27.8626 94.2103 27.6506 94.1707 27.4289C94.131 27.2073 94.1373 26.9803 94.1892 26.7609C94.2436 26.576 94.3258 26.3998 94.4331 26.2376ZM25.2286 56.2697L16.3545 50.9358L26.5644 53.1629C26.8139 53.2188 27.0477 53.3261 27.2496 53.4773C27.4516 53.6286 27.6167 53.8201 27.7336 54.0387C27.8506 54.2573 27.9165 54.4977 27.9268 54.7431C27.9371 54.9885 27.8915 55.2332 27.7932 55.4601C27.695 55.6869 27.5464 55.8906 27.3578 56.0569C27.1692 56.2232 26.9451 56.3481 26.7011 56.423C26.4571 56.498 26.199 56.521 25.9447 56.4907C25.6904 56.4604 25.4461 56.3774 25.2286 56.2474V56.2697Z" fill="#EF9F00"/>
<path opacity="0.25" d="M68.9215 74.7476C76.9759 71.5493 80.8007 62.697 77.4644 54.9754C74.1282 47.2539 64.8943 43.5872 56.8399 46.7855C48.7856 49.9839 44.9608 58.8362 48.297 66.5577C51.6332 74.2792 60.8671 77.946 68.9215 74.7476Z" fill="white"/>
<path d="M46.4615 110.02C40.9437 110.06 35.5408 108.508 30.955 105.566C26.9478 103.004 22.2393 101.637 17.4231 101.637C12.6068 101.637 7.89833 103.004 3.89115 105.566C3.70314 105.698 3.48923 105.794 3.26212 105.845C3.03501 105.897 2.79935 105.905 2.56912 105.868C2.33889 105.831 2.11879 105.75 1.9219 105.629C1.72501 105.509 1.55534 105.352 1.42298 105.168C1.29062 104.983 1.19825 104.775 1.15138 104.556C1.1045 104.337 1.10407 104.111 1.15011 103.891C1.19615 103.672 1.28772 103.464 1.41938 103.279C1.55104 103.094 1.72011 102.936 1.91654 102.815C6.50821 99.8795 11.9039 98.3128 17.4231 98.3128C22.9423 98.3128 28.3379 99.8795 32.9296 102.815C36.9368 105.377 41.6453 106.744 46.4615 106.744C51.2778 106.744 55.9863 105.377 59.9935 102.815C63.1078 100.811 66.612 99.4296 70.2964 98.7541C73.9808 98.0787 77.7694 98.1231 81.4355 98.8846C81.8883 98.9776 82.284 99.2393 82.5356 99.612C82.7872 99.9848 82.8741 100.438 82.777 100.872C82.68 101.306 82.407 101.686 82.0182 101.927C81.6294 102.168 81.1565 102.251 80.7037 102.158C77.5071 101.476 74.1997 101.42 70.98 101.994C67.7604 102.569 64.695 103.761 61.9681 105.499C57.3902 108.465 51.9867 110.04 46.4615 110.02ZM104.538 110.02C99.0206 110.06 93.6177 108.508 89.0319 105.566C88.8355 105.445 88.6664 105.287 88.5348 105.102C88.4031 104.918 88.3115 104.709 88.2655 104.49C88.2195 104.27 88.2199 104.044 88.2668 103.825C88.3136 103.606 88.406 103.398 88.5384 103.213C88.6707 103.029 88.8404 102.872 89.0373 102.752C89.2342 102.632 89.4543 102.55 89.6845 102.513C89.9147 102.476 90.1504 102.484 90.3775 102.536C90.6046 102.588 90.8185 102.683 91.0065 102.815C95.0165 105.37 99.7239 106.733 104.538 106.733C109.353 106.733 114.06 105.37 118.07 102.815C118.258 102.683 118.472 102.588 118.699 102.536C118.927 102.484 119.162 102.476 119.392 102.513C119.623 102.55 119.843 102.632 120.04 102.752C120.237 102.872 120.406 103.029 120.539 103.213C120.671 103.398 120.763 103.606 120.81 103.825C120.857 104.044 120.857 104.27 120.811 104.49C120.765 104.709 120.674 104.918 120.542 105.102C120.41 105.287 120.241 105.445 120.045 105.566C115.459 108.508 110.056 110.06 104.538 110.02ZM148.096 105.8C147.744 105.802 147.4 105.701 147.109 105.51C144.11 103.594 140.706 102.339 137.142 101.834C133.577 101.33 129.94 101.589 126.492 102.593C126.272 102.655 126.042 102.675 125.814 102.652C125.586 102.629 125.365 102.563 125.164 102.458C124.963 102.353 124.785 102.211 124.641 102.04C124.498 101.869 124.39 101.673 124.325 101.462C124.26 101.252 124.24 101.031 124.264 100.813C124.288 100.594 124.357 100.383 124.466 100.19C124.576 99.9971 124.724 99.8268 124.902 99.6888C125.08 99.5508 125.285 99.4478 125.504 99.3857C129.449 98.2485 133.607 97.9583 137.682 98.5357C141.758 99.113 145.65 100.544 149.083 102.726C149.461 102.978 149.719 103.362 149.804 103.796C149.889 104.229 149.793 104.676 149.536 105.042C149.381 105.274 149.168 105.464 148.917 105.597C148.665 105.729 148.383 105.799 148.096 105.8ZM41.9896 123.883H41.6992C37.8511 123.271 34.1862 121.87 30.955 119.775C26.945 117.22 22.2376 115.857 17.4231 115.857C12.6085 115.857 7.90112 117.22 3.89115 119.775C3.70314 119.907 3.48923 120.002 3.26212 120.054C3.03501 120.106 2.79935 120.114 2.56912 120.077C2.33889 120.039 2.11879 119.958 1.9219 119.838C1.72501 119.718 1.55534 119.561 1.42298 119.376C1.29062 119.192 1.19825 118.984 1.15138 118.765C1.1045 118.546 1.10407 118.319 1.15011 118.1C1.19615 117.881 1.28772 117.672 1.41938 117.487C1.55104 117.303 1.72011 117.145 1.91654 117.024C6.51045 114.094 11.9052 112.531 17.4231 112.531C22.9409 112.531 28.3357 114.094 32.9296 117.024C35.7245 118.837 38.8937 120.052 42.2219 120.587C42.684 120.624 43.1119 120.836 43.4114 121.175C43.7109 121.514 43.8575 121.954 43.819 122.397C43.7805 122.84 43.56 123.25 43.2061 123.537C42.8521 123.824 42.3936 123.965 41.9315 123.928L41.9896 123.883ZM100.705 123.984H100.461C96.366 123.437 92.4559 121.997 89.0319 119.775C85.0219 117.22 80.3145 115.857 75.5 115.857C70.6854 115.857 65.978 117.22 61.9681 119.775C59.2096 121.58 56.1198 122.868 52.8616 123.572C52.6342 123.634 52.396 123.651 52.1614 123.622C51.9268 123.593 51.7009 123.519 51.4973 123.404C51.2937 123.288 51.1167 123.134 50.9771 122.951C50.8375 122.768 50.7382 122.56 50.6854 122.339C50.6325 122.118 50.6271 121.889 50.6694 121.666C50.7118 121.443 50.8012 121.231 50.932 121.042C51.0628 120.853 51.2323 120.691 51.4303 120.567C51.6282 120.443 51.8504 120.359 52.0834 120.32C54.9148 119.691 57.598 118.558 59.9935 116.98C64.5874 114.049 69.9821 112.486 75.5 112.486C81.0178 112.486 86.4126 114.049 91.0065 116.98C93.9873 118.907 97.3881 120.156 100.949 120.632C101.411 120.663 101.842 120.869 102.146 121.204C102.449 121.539 102.602 121.976 102.57 122.419C102.537 122.862 102.323 123.275 101.973 123.566C101.623 123.857 101.167 124.004 100.705 123.973V123.984ZM112.344 123.126C111.93 123.12 111.532 122.973 111.221 122.712C110.91 122.45 110.706 122.091 110.646 121.699C110.586 121.306 110.674 120.906 110.893 120.57C111.113 120.234 111.45 119.983 111.845 119.864C114.058 119.215 116.157 118.251 118.07 117.002C122.664 114.072 128.059 112.508 133.577 112.508C139.095 112.508 144.49 114.072 149.083 117.002C149.28 117.123 149.449 117.28 149.581 117.465C149.712 117.65 149.804 117.858 149.85 118.078C149.896 118.297 149.895 118.523 149.849 118.743C149.802 118.962 149.709 119.17 149.577 119.354C149.445 119.539 149.275 119.696 149.078 119.816C148.881 119.936 148.661 120.017 148.431 120.054C148.201 120.091 147.965 120.084 147.738 120.032C147.511 119.98 147.297 119.885 147.109 119.752C143.099 117.198 138.391 115.835 133.577 115.835C128.762 115.835 124.055 117.198 120.045 119.752C117.838 121.208 115.414 122.334 112.855 123.093C112.687 123.126 112.515 123.138 112.344 123.126ZM46.4615 138.493C40.9436 138.534 35.5405 136.982 30.955 134.039C26.9478 131.478 22.2393 130.111 17.4231 130.111C12.6068 130.111 7.89833 131.478 3.89115 134.039C3.70201 134.163 3.48918 134.251 3.26481 134.296C3.04045 134.342 2.80895 134.344 2.58352 134.304C2.3581 134.264 2.14317 134.181 1.951 134.061C1.75883 133.941 1.59319 133.786 1.46354 133.605C1.33388 133.423 1.24275 133.219 1.19535 133.004C1.14794 132.789 1.14519 132.567 1.18726 132.351C1.22932 132.135 1.31538 131.929 1.44051 131.745C1.56564 131.56 1.72739 131.402 1.91654 131.277C6.51045 128.347 11.9052 126.784 17.4231 126.784C22.9409 126.784 28.3357 128.347 32.9296 131.277C36.9368 133.839 41.6453 135.206 46.4615 135.206C51.2778 135.206 55.9863 133.839 59.9935 131.277C65.968 127.468 73.2395 126.001 80.3088 127.18C80.5376 127.217 80.7565 127.297 80.953 127.415C81.1495 127.534 81.3197 127.688 81.454 127.87C81.5883 128.051 81.684 128.256 81.7356 128.473C81.7872 128.69 81.7938 128.914 81.7549 129.134C81.716 129.353 81.6324 129.563 81.5089 129.751C81.3854 129.94 81.2244 130.103 81.0351 130.232C80.8458 130.36 80.6319 130.452 80.4057 130.502C80.1794 130.551 79.9452 130.557 79.7164 130.52C73.5424 129.477 67.1867 130.753 61.9681 134.084C57.3773 137.011 51.9747 138.547 46.4615 138.493ZM104.538 138.493C99.0205 138.534 93.6174 136.982 89.0319 134.039C88.6499 133.788 88.3876 133.402 88.3026 132.965C88.2177 132.529 88.3171 132.078 88.5789 131.712C88.8408 131.345 89.2436 131.094 89.6989 131.013C90.1542 130.931 90.6245 131.026 91.0065 131.277C95.0137 133.839 99.7222 135.206 104.538 135.206C109.355 135.206 114.063 133.839 118.07 131.277C122.664 128.347 128.059 126.784 133.577 126.784C139.095 126.784 144.49 128.347 149.083 131.277C149.465 131.528 149.728 131.915 149.813 132.351C149.898 132.788 149.798 133.238 149.536 133.605C149.407 133.786 149.241 133.941 149.049 134.061C148.857 134.181 148.642 134.264 148.416 134.304C147.961 134.385 147.491 134.29 147.109 134.039C143.102 131.478 138.393 130.111 133.577 130.111C128.761 130.111 124.052 131.478 120.045 134.039C115.46 136.982 110.056 138.534 104.538 138.493ZM149.083 88.5064C144.49 85.5761 139.095 84.0128 133.577 84.0128C128.059 84.0128 122.664 85.5761 118.07 88.5064C117.617 88.7959 117.153 89.0632 116.677 89.3304C115.669 89.6599 114.712 90.1168 113.831 90.6889C110.876 91.8241 107.722 92.4062 104.538 92.4038C99.7262 92.4324 95.0159 91.0746 91.0181 88.5064C86.4221 85.5869 81.0308 84.0299 75.5174 84.0299C70.004 84.0299 64.6127 85.5869 60.0167 88.5064C56.0057 91.0741 51.2845 92.4315 46.4615 92.4038C43.2782 92.4076 40.1236 91.8255 37.1692 90.6889C37.1692 90.5664 34.0911 89.2747 32.918 88.4619C28.327 85.5302 22.9276 83.9793 17.4115 84.0077C11.899 83.9794 6.50332 85.5305 1.91654 88.4619C1.53454 88.7129 1.27221 89.0991 1.18726 89.5356C1.10231 89.972 1.20169 90.423 1.46354 90.7892C1.72539 91.1554 2.12826 91.4069 2.58352 91.4883C3.03879 91.5697 3.50916 91.4745 3.89115 91.2234C7.89808 88.6701 12.6119 87.328 17.4231 87.3706C22.2421 87.3451 26.9589 88.7024 30.9666 91.268C32.1069 92.005 33.3071 92.6529 34.5558 93.2055L35.1481 93.4616C38.709 94.9364 42.5478 95.6944 46.4267 95.6887C51.9428 95.7172 57.3422 94.1662 61.9332 91.2346C65.9482 88.6926 70.6536 87.3374 75.4651 87.3374C80.2766 87.3374 84.9821 88.6926 88.9971 91.2346C93.5829 94.1678 98.9792 95.719 104.492 95.6887C108.383 95.6996 112.234 94.9415 115.805 93.4616L116.409 93.2055C117.652 92.6478 118.847 92 119.987 91.268C123.995 88.7042 128.706 87.3359 133.525 87.3359C138.343 87.3359 143.054 88.7042 147.062 91.268C147.444 91.519 147.915 91.6143 148.37 91.5328C148.825 91.4514 149.228 91.1999 149.49 90.8337C149.752 90.4675 149.851 90.0166 149.766 89.5801C149.681 89.1437 149.419 88.7574 149.037 88.5064H149.083Z" fill="#0BAEFF"/>
</svg>
