<svg width="64" height="64" viewBox="0 0 64 64" fill="none" xmlns="http://www.w3.org/2000/svg">
<path d="M13.13 8.63L32 16V56L13.25 47.87C12.8782 47.7196 12.5601 47.4609 12.3372 47.1274C12.1143 46.7939 11.9968 46.4011 12 46V10C12 9.46957 12.2107 8.96086 12.5858 8.58579C12.9609 8.21071 13.4696 8 14 8H41C41.5304 8 42.0391 8.21071 42.4142 8.58579C42.7893 8.96086 43 9.46957 43 10V46C43 46.5304 42.7893 47.0391 42.4142 47.4142C42.0391 47.7893 41.5304 48 41 48H32" stroke="#5A95CE" stroke-width="2" stroke-linecap="round" stroke-linejoin="round"/>
<path d="M27.91 35.06L24.13 33.5" stroke="#5A95CE" stroke-width="2" stroke-linecap="round" stroke-linejoin="round"/>
<path d="M50 32.24L54.24 28L50 23.76" stroke="#5A95CE" stroke-width="2" stroke-linecap="round" stroke-linejoin="round"/>
<path d="M54 28H43" stroke="#5A95CE" stroke-width="2" stroke-linecap="round" stroke-linejoin="round"/>
</svg>
