<svg width="115" height="180" viewBox="0 0 115 180" fill="none" xmlns="http://www.w3.org/2000/svg">
<path d="M57.5218 0C57.244 0 56.9747 0.0666044 56.7 0.0769043C56.3779 0.100593 56.0635 0.10025 55.7414 0.153809C52.2116 0.444946 48.9628 1.54427 46.254 3.2959L6.03854 17.3364C3.04417 18.3829 0.852866 20.6818 0.19921 23.4668C-0.454447 26.2491 0.522926 29.1385 2.80139 31.1462L31.6245 56.5906C31.7385 56.6912 31.9981 56.7269 31.9981 56.8213V118.125V171.562C31.9981 176.223 36.2779 180 41.5601 180C46.8423 180 51.1222 176.223 51.1222 171.562V129.375H63.8716V171.562C63.8716 176.223 68.1515 180 73.4337 180C78.7158 180 82.9957 176.223 82.9957 171.562V115.312V104.612C82.9957 104.525 83.2529 104.495 83.3568 104.403L112.192 78.9587C115.928 75.6656 115.94 70.3235 112.205 67.0276L83.6681 41.8469C81.7651 40.1677 79.2633 39.365 76.7704 39.397C76.7241 39.3959 76.6926 39.375 76.6459 39.375H39.1696L26.6194 28.3008L40.0038 23.6206C42.9573 29.5752 49.6841 33.75 57.5218 33.75C68.0838 33.75 76.6459 26.1948 76.6459 16.875C76.6459 7.87891 68.646 0.598411 58.5925 0.098877C58.2758 0.0669478 57.9548 0.014763 57.6338 0.0109863C57.5926 0.0106432 57.563 0 57.5218 0ZM98.808 0.0219727C93.5103 0.0219727 89.2086 3.76831 89.2086 8.3606C89.2086 9.91516 90.6342 11.1731 92.3959 11.1731C94.1577 11.1731 95.5833 9.91516 95.5833 8.3606C95.5833 6.91864 97.0867 5.65796 98.808 5.65796C100.511 5.65796 101.958 6.88843 101.958 8.34961C101.958 9.09943 101.812 9.4812 101.323 10.0415C100.844 10.5908 100.199 11.0687 99.5799 11.5576C97.8057 12.9529 95.6082 14.697 95.6082 17.4573L95.5833 19.9402C95.5707 21.492 96.984 22.5 98.7457 22.5H98.7706C100.52 22.5 101.946 21.5305 101.958 19.9841L101.97 17.3584C102.073 16.9986 103.169 16.2048 103.826 15.6885C104.741 14.9689 105.665 14.2493 106.378 13.4363C107.732 11.8872 108.333 10.3217 108.333 8.32764C108.333 3.74084 104.056 0.0219727 98.808 0.0219727ZM98.7333 28.6414C97.8879 28.6414 97.0772 28.9377 96.4795 29.4651C95.8817 29.9926 95.5459 30.7079 95.5459 31.4539C95.5459 32.1998 95.8817 32.9151 96.4795 33.4426C97.0772 33.97 97.8879 34.2664 98.7333 34.2664C99.5786 34.2664 100.389 33.97 100.987 33.4426C101.585 32.9151 101.921 32.1998 101.921 31.4539C101.921 30.7079 101.585 29.9926 100.987 29.4651C100.389 28.9377 99.5786 28.6414 98.7333 28.6414ZM82.9957 65.1379L91.8979 72.9932L82.9957 80.8484V65.1379Z" fill="black"/>
</svg>
